<?xml version="1.0" standalone="no"?><!DOCTYPE svg PUBLIC "-//W3C//DTD SVG 1.1//EN" "http://www.w3.org/Graphics/SVG/1.1/DTD/svg11.dtd"><svg t="1613610882892" class="icon" viewBox="0 0 1024 1024" version="1.1" xmlns="http://www.w3.org/2000/svg" p-id="9608" xmlns:xlink="http://www.w3.org/1999/xlink" width="200" height="200"><defs><style type="text/css"></style></defs><path d="M91.97568 154.41408c-1.8944-8.10496-4.54144-19.29216-7.94624-33.56672a33.792 33.792 0 0 1 22.00576-39.84384L284.40064 20.4544a33.792 33.792 0 0 1 43.14624 22.02624l67.39456 218.112a33.792 33.792 0 0 1-7.936 33.40288c-57.53856 59.8016-99.28704 104.42752-125.25056 133.888 70.20544 134.45632 171.1104 254.47936 282.75712 347.65312 32.96256-20.87936 83.9424-55.45472 152.9344-103.7312a33.792 33.792 0 0 1 35.1744-2.18624l199.00928 105.26208a33.792 33.792 0 0 1 14.11072 45.59872l-86.53824 164.57216a33.792 33.792 0 0 1-40.12544 16.4864c-19.78368-6.28224-32.52736-11.19232-38.21568-14.7456C434.77504 834.6112 186.19904 524.6208 91.97568 154.41408z m794.43968 663.6288c-54.64576-24.02816-112.14848-50.19136-159.42656-86.41024-40.32512 28.55424-79.86176 56.50944-119.63392 78.6944 49.1008 42.15296 135.8848 95.95904 214.99904 128.54272l64.06144-120.832zM276.1216 86.528l-126.96576 42.78784c18.34496 78.592 49.2032 158.2848 86.3232 238.52032 28.3648-36.00896 69.84192-67.03104 98.21696-103.04C304.11776 189.4912 284.92288 130.06848 276.1216 86.528z" p-id="9609" fill="#e6e6e6"></path></svg>